<svg height="512" viewBox="0 0 64 64" width="512" xmlns="http://www.w3.org/2000/svg"><g id="expanded"><path d="m25.45752.06714c-7.46208 0-24.81252 1.77232-24.81252 9.21586v44.2998c0 7.6207 18.28542 9.41953 25.99072 9.20948a1.50006 1.50006 0 0 0 -.081-2.999c-6.73033.17917-22.90972-1.83328-22.90972-6.21052v-10.33245c5.38233 3.29044 16.60917 4.31 22.76123 4.1015a1.4999 1.4999 0 0 0 -.10254-2.998c-7.10743.23359-22.65869-1.86271-22.65869-5.26081v-10.26616c4.437 2.71277 13.15912 4.11481 21.8125 4.11481 8.65662 0 17.382-1.403 21.81738-4.1178v9.14905a1.5 1.5 0 1 0 3 0v-28.6899c.00002-7.427-17.31175-9.21586-24.81736-9.21586zm0 3c13.314 0 21.81006 3.68506 21.81006 6.22217s-8.4961 6.22269-21.81006 6.22269-21.81006-3.68558-21.81006-6.22269 8.49609-6.22217 21.81006-6.22217zm21.81738 21.57825-.002.0194c0 1.791-7.7002 5.27686-21.81543 5.27686-14.08649 0-21.78125-3.47113-21.8125-5.26532v-10.7525c4.43456 3.0249 13.15783 4.58817 21.81255 4.58817 8.6579 0 17.3844-1.56445 21.81738-4.59149z"/><g fill="#3e3ef4"><path d="m47.94434 49.77612a3.17871 3.17871 0 1 0 1.23205 6.10852l-.48645-.48645a1.24986 1.24986 0 1 1 1.76758-1.76757l.44977.44976a3.14813 3.14813 0 0 0 .21576-1.12555 3.18207 3.18207 0 0 0 -3.17871-3.17871z"/><path d="m59.855 41.97681h-26a3.50424 3.50424 0 0 0 -3.5 3.5v14.956a3.50424 3.50424 0 0 0 3.5 3.5h26a3.50424 3.50424 0 0 0 3.5-3.5v-14.956a3.50424 3.50424 0 0 0 -3.5-3.5zm-18.74416 13.70654a3.795 3.795 0 0 1 -3.86768 2.95019 5.40042 5.40042 0 0 1 -4.01269-1.72363 1.25 1.25 0 0 1 1.85253-1.67871 2.93814 2.93814 0 0 0 2.16015.90234 1.37115 1.37115 0 0 0 1.40674-.88964c.10156-.56739-.79345-.94434-1.07031-1.04639-1.37793-.50879-2.60205-1.05322-2.65332-1.07617-2.1715-.971-2.129-4.75042.86572-5.65283a5.319 5.319 0 0 1 4.62842 1.01171 1.24993 1.24993 0 0 1 -1.60156 1.91944 2.8092 2.8092 0 0 0 -2.30567-.5376c-.66221.19985-.739.77978-.45361 1.02686.32959.14355 1.32178.57031 2.38525.96289 2.3174.85498 2.89699 2.54004 2.66603 3.83154zm12.18016 2.54834a1.24955 1.24955 0 0 1 -1.76758 0l-.50763-.50763a5.70792 5.70792 0 1 1 1.75055-1.78461l.52466.52466a1.24955 1.24955 0 0 1 0 1.76758zm6.269.39453c-.74414.00393-3.06492.02534-3.3169-.01758a1.24963 1.24963 0 0 1 -1.0415-1.23242v-8.8501a1.25 1.25 0 0 1 2.5 0v7.60694c.585-.001 1.2832-.00391 1.84473-.00684h.00683a1.25 1.25 0 0 1 .00684 2.5z"/></g></g></svg>